<?xml version="1.0" standalone="no"?> <!DOCTYPE svg PUBLIC "-//W3C//DTD SVG 20010904//EN" "http://www.w3.org/TR/2001/REC-SVG-20010904/DTD/svg10.dtd"> <svg version="1.0" xmlns="http://www.w3.org/2000/svg" width="600.000000pt" height="327.000000pt" viewBox="0 0 600.000000 327.000000" preserveAspectRatio="xMidYMid meet"> <g transform="translate(0.000000,327.000000) scale(0.100000,-0.100000)" fill="#000000" stroke="none"> <path d="M1435 2335 c-30 -29 -32 -68 -5 -95 20 -20 74 -27 96 -12 15 10 34 47 34 67 0 25 -46 65 -75 65 -14 0 -37 -11 -50 -25z"/> <path d="M4140 1970 l0 -360 60 0 60 0 0 360 0 360 -60 0 -60 0 0 -360z"/> <path d="M840 1955 l0 -345 60 0 60 0 0 134 0 133 108 5 c108 5 150 17 196 57 58 51 76 172 37 248 -45 89 -112 113 -318 113 l-143 0 0 -345z m323 225 c31 -25 51 -80 42 -120 -4 -16 -20 -41 -37 -55 -27 -23 -38 -25 -119 -25 l-89 0 0 110 0 110 89 0 c73 0 93 -3 114 -20z"/> <path d="M2940 1956 l0 -346 60 0 60 0 0 134 0 133 108 5 c141 6 193 31 234 112 30 60 23 170 -15 220 -53 69 -90 80 -279 84 l-168 4 0 -346z m332 215 c28 -25 32 -34 32 -81 0 -47 -4 -56 -32 -81 -31 -27 -37 -29 -122 -29 l-90 0 0 110 0 110 90 0 c85 0 91 -2 122 -29z"/> <path d="M1430 1880 l0 -270 55 0 55 0 0 270 0 270 -55 0 -55 0 0 -270z"/> <path d="M1680 1880 l0 -270 55 0 55 0 0 153 c0 83 5 170 10 192 25 109 173 137 230 43 18 -30 20 -50 20 -210 l0 -178 60 0 60 0 0 165 c0 238 -20 304 -105 352 -69 39 -204 27 -244 -20 -20 -25 -31 -21 -31 13 0 30 -1 30 -55 30 l-55 0 0 -270z"/> <path d="M2415 2131 c-96 -43 -151 -150 -143 -276 8 -115 53 -189 143 -231 86 -41 184 -27 248 33 l27 27 0 -65 c0 -78 -22 -125 -71 -151 -68 -37 -175 -14 -205 43 -13 27 -19 29 -69 29 -63 0 -67 -7 -35 -71 73 -142 336 -160 441 -29 51 63 59 124 59 432 l0 278 -60 0 -60 0 0 -37 0 -36 -22 20 c-61 56 -173 71 -253 34z m210 -105 c44 -29 68 -91 63 -163 -4 -70 -23 -103 -78 -140 -64 -44 -157 -17 -199 57 -25 45 -28 133 -7 184 16 38 69 82 106 88 34 5 85 -7 115 -26z"/> <path d="M3522 1948 c3 -201 3 -204 30 -250 57 -96 205 -129 295 -65 l38 27 3 -25 c3 -24 7 -25 63 -25 l59 0 -2 268 -3 267 -57 3 -57 3 -3 -190 -3 -191 -31 -31 c-60 -60 -163 -48 -201 24 -13 25 -18 68 -21 210 l-4 177 -55 0 -54 0 3 -202z"/> <path d="M4470 2128 c-83 -42 -114 -133 -70 -205 24 -39 50 -53 165 -88 50 -15 98 -34 108 -43 36 -32 8 -87 -50 -96 -55 -9 -95 5 -118 42 -19 29 -24 31 -77 32 -67 0 -71 -9 -37 -70 41 -73 131 -109 245 -97 99 10 164 72 164 155 0 87 -37 119 -192 166 -98 30 -129 57 -108 95 32 61 158 51 174 -14 6 -23 11 -25 62 -25 l57 0 -6 37 c-14 84 -88 133 -202 133 -54 0 -82 -5 -115 -22z"/> <path d="M5019 2122 c-118 -61 -171 -232 -115 -367 76 -181 346 -211 454 -51 17 27 32 52 32 56 0 4 -25 8 -55 9 -50 1 -58 -1 -89 -32 -71 -72 -183 -50 -232 45 -30 59 -33 58 186 58 l200 0 6 24 c9 37 -14 136 -41 177 -50 76 -118 109 -225 109 -55 0 -78 -5 -121 -28z m210 -89 c32 -24 67 -91 54 -104 -5 -5 -68 -8 -144 -7 l-134 3 3 24 c3 34 40 81 76 97 40 18 111 12 145 -13z"/> <path d="M1202 1748 c-6 -7 -31 -132 -57 -278 -26 -146 -50 -268 -54 -271 -3 -4 -23 -4 -44 -2 -34 5 -43 13 -81 69 l-43 64 -41 -65 c-23 -36 -52 -69 -65 -74 -12 -5 -58 -12 -101 -16 -105 -10 -78 -25 44 -25 l95 0 29 40 c17 22 32 40 35 40 3 0 19 -21 35 -46 20 -31 37 -47 57 -51 18 -3 42 -21 60 -44 17 -22 34 -39 38 -39 30 0 42 34 76 230 31 175 45 238 45 206 0 -42 103 -672 111 -683 13 -15 28 -16 47 -4 12 7 47 117 93 284 9 36 11 37 54 37 84 0 137 37 207 147 105 165 172 169 338 19 168 -151 355 -205 563 -161 96 20 177 67 281 163 99 91 148 122 196 122 75 0 117 -46 214 -235 110 -212 161 -265 256 -265 50 0 85 17 126 62 43 47 58 73 120 210 88 197 138 257 199 242 31 -8 92 -76 125 -141 84 -164 137 -232 205 -264 92 -43 151 -17 295 131 147 151 168 155 354 72 76 -34 88 -36 203 -40 75 -3 128 0 140 7 15 9 12 10 -18 11 -93 0 -205 32 -318 88 -105 52 -120 57 -180 57 -91 -1 -130 -24 -235 -138 -48 -52 -103 -103 -122 -112 -82 -39 -138 7 -239 194 -91 171 -166 232 -258 211 -81 -18 -113 -58 -216 -273 -92 -192 -126 -237 -180 -237 -57 0 -98 49 -186 221 -115 224 -185 288 -301 276 -70 -7 -117 -35 -226 -135 -103 -94 -152 -125 -235 -146 -184 -48 -358 2 -523 149 -102 91 -156 120 -225 119 -84 -2 -140 -45 -218 -167 -56 -87 -83 -107 -144 -107 -73 0 -105 -29 -128 -115 -10 -36 -21 -65 -24 -65 -4 0 -30 159 -60 353 -29 193 -58 360 -63 370 -10 20 -41 23 -56 5z"/> </g> </svg>